<svg viewBox="0 0 228 198" xmlns="http://www.w3.org/2000/svg"><g fill="none" fill-rule="evenodd"><path fill="#FFF" d="M57 89l-5.102 10.075-7.728 63.811 15.46 33.888h76.989l43.5-28.743 13.815-37.793L170 89l-45.692-40.062L90.63 51.7z"/><path d="M119.52 3.891L170 89h-44.835a3 3 0 0 1-2.77-4.152c5.17-12.438 2.205-18.658-8.895-18.658s-14.065 6.22-8.895 18.658a3 3 0 0 1-2.77 4.152H57l50.48-85.109a7 7 0 0 1 12.04 0z" fill="#E7B71B" fill-rule="nonzero"/><path d="M220.622 197.635l-100.068-.562 22.049-38.698a3 3 0 0 1 4.979-.35c8.52 11.009 15.519 11.707 20.996 2.094 5.485-9.626 1.37-15.42-12.344-17.385a3 3 0 0 1-2.18-4.454l22.095-38.78 50.575 87.636a7 7 0 0 1-6.102 10.499z" fill="#20DA9A" fill-rule="nonzero"/><path d="M7.425 197.21l100.068-.562-22.049-38.698a3 3 0 0 0-4.98-.35c-8.519 11.01-15.518 11.707-20.995 2.094-5.485-9.625-1.37-15.42 12.343-17.384a3 3 0 0 0 2.182-4.455l-22.096-38.78-50.575 87.636a7 7 0 0 0 6.102 10.499z" fill="#28ABE3" fill-rule="nonzero"/></g></svg>